<svg xmlns="http://www.w3.org/2000/svg" version="1.1" xmlns:xlink="http://www.w3.org/1999/xlink" xmlns:svgjs="http://svgjs.com/svgjs" width="1000" height="1000"><rect width="1000" height="1000" rx="500" ry="500" fill="#f8f2f0"></rect><g transform="matrix(0.5138086062941555,0,0,0.5138086062941555,117.85907268753857,99.9845988136849)"><svg xmlns="http://www.w3.org/2000/svg" version="1.1" xmlns:xlink="http://www.w3.org/1999/xlink" xmlns:svgjs="http://svgjs.com/svgjs" width="1488" height="1557"><svg width="1488" height="1557" viewBox="0 0 1488 1557" fill="none" xmlns="http://www.w3.org/2000/svg">
<g clip-path="url(#clip0_89_52)">
<path d="M744.396 252.884L219.596 556.113V1253.61L361.061 1335.39V1079.89L563.752 962.85H563.834L635.059 921.594L669.073 901.991L895.779 770.923L924.466 754.355L1268.29 555.703L744.314 252.966L744.396 252.884ZM839.225 750.172L745.215 695.711L593.013 783.718L361.143 917.575V633.95L566.949 515.021L744.478 412.413L882.911 492.301L1072.49 601.88L1021.1 634.442L839.307 750.09L839.225 750.172Z" fill="#FF660F"></path>
<path d="M1269.11 838.426V1253.61L1165.19 1313.73C1173.06 1291.26 1176.5 1267.47 1171.5 1243.36C1165.68 1215.31 1149.94 1189.72 1127.57 1172V920.118L1269.11 838.426Z" fill="#FF660F"></path>
<path d="M1487.87 429.638V1127.14L1295.18 1238.52V793.151H1295.1L1101.58 905.026H1101.5L733.74 1117.54L648.009 1167L579.816 1206.37V1429.22L648.09 1389.85L840.782 1278.46L899.631 1244.43L908.892 1239.09L937.661 1222.44C931.841 1236.88 928.891 1252.38 928.891 1268.05C928.891 1289.45 934.546 1310.7 945.283 1329.4C956.102 1348.02 971.675 1363.6 990.198 1374.35C1003.89 1382.22 1018.8 1387.3 1034.21 1389.52L1011.67 1402.48L904.958 1464.16L840.782 1501.23L744.313 1556.92L648.009 1501.23H647.927L579.734 1461.78L387.043 1350.48V1094.98L579.652 983.766H579.734L648.009 944.232L682.023 924.629L908.728 793.561L937.415 776.993L1101.42 682.26L1295.01 570.384V541.021L744.395 222.701L193.449 541.021V1238.52L0.675781 1127.14V429.638L229.267 297.585V155.527L387.043 64.3204V206.379L744.313 0.0166016L1487.87 429.638Z" fill="black"></path>
<path d="M1005.93 1182.91L1000.69 1185.94C1001.51 1185.45 1002.33 1184.88 1003.23 1184.39C1004.13 1183.89 1005.03 1183.32 1005.93 1182.91Z" fill="#FF660F"></path>
<path d="M1021.92 602.946L1007 612.461L908.892 674.796L838.569 719.579L745.133 665.528L648.091 721.547L579.817 761.081L387.125 872.382V649.041L579.817 537.74L648.091 498.289L744.396 442.597L840.782 498.289L908.892 537.658V537.494L1021.92 602.946Z" fill="black"></path>
<path d="M1147.89 1268.05C1147.89 1285.27 1143.3 1301.92 1135.02 1316.27C1127.16 1329.89 1116.17 1341.54 1102.4 1349.99L1101.01 1350.89C1100.6 1351.13 1100.11 1351.38 1099.7 1351.71C1098.88 1352.12 1098.14 1352.61 1097.32 1353.02L1096.83 1353.27C1087.9 1358.02 1078.31 1361.39 1068.55 1363.11C1062.9 1364.17 1057.16 1364.67 1051.51 1364.67C1034.87 1364.67 1018.23 1360.32 1003.31 1351.71C988.313 1343.1 976.346 1330.79 967.986 1316.36C959.708 1302 955.118 1285.35 955.118 1268.13C955.118 1250.9 959.708 1234.25 967.986 1219.9C968.806 1218.59 969.543 1217.28 970.527 1215.96C977.985 1204.07 988.313 1193.74 1000.85 1186.11C1001.67 1185.62 1002.49 1185.04 1003.39 1184.55C1004.3 1184.06 1005.2 1183.48 1006.1 1183.07C1020.36 1175.45 1035.93 1171.59 1051.59 1171.59C1068.23 1171.59 1084.86 1175.94 1099.78 1184.55C1100.52 1184.88 1101.09 1185.37 1101.67 1185.78C1130.35 1203.17 1147.97 1234.5 1147.97 1268.21L1147.89 1268.05Z" fill="black"></path>
</g>
<defs>
<clipPath id="clip0_89_52">
<rect width="1487.19" height="1556.91" fill="white" transform="translate(0.675781 0.0166016)"></rect>
</clipPath>
</defs>
</svg></svg></g></svg>